# xmcd
#
# Track frame offsets: 
#        150
#        14447
#        31146
#        49516
#        73634
#        88064
#        112311
#        129270
#        143441
#        168298
#        183523
#        203137
#        220621
#
# Disc length: 3226 seconds
#
# Revision: 0
# Processed by: cddbd v1.5.2PL0 Copyright (c) Steve Scherf et al.
# Submitted via: ExactAudioCopy v1.0b4
#
DISCID=ae0c980d
DTITLE=Shawn Pittman - Backslidin' Again
DYEAR=2015
DGENRE=Blues Rock
TTITLE0=Made In The Shade
TTITLE1=How Come It Is
TTITLE2=Ain't Had But Two
TTITLE3=Smart Phone (Pocket Dial)
TTITLE4=Backslidin' Again
TTITLE5=Real Mother For You
TTITLE6=Hide Nor Hair
TTITLE7=I Miss You So
TTITLE8=Turn Me Aloose
TTITLE9=Lucy Mae Blues
TTITLE10=Together Kind Of Day
TTITLE11=Trouble Comes Around
TTITLE12=Fortune And Fame
EXTD=
EXTT0=
EXTT1=
EXTT2=
EXTT3=
EXTT4=
EXTT5=
EXTT6=
EXTT7=
EXTT8=
EXTT9=
EXTT10=
EXTT11=
EXTT12=
PLAYORDER=
